<svg width="1920" height="1080" viewBox="0 0 1920 1080" fill="none" xmlns="http://www.w3.org/2000/svg">
<g clip-path="url(#clip0_340:1115)">
<path d="M1002.71 656.9C1130.43 622.677 1190.85 550.54 1152.66 408.02C1114.47 265.5 1026.08 233.239 898.356 267.462C770.633 301.685 710.213 373.821 748.401 516.342C786.589 658.862 874.983 691.123 1002.71 656.9ZM970.49 536.667C928.892 547.813 907.73 532.11 893.114 477.566C878.499 423.021 888.975 398.841 930.573 387.695C972.171 376.549 993.333 392.251 1007.95 446.796C1022.56 501.341 1012.09 525.521 970.49 536.667Z" fill="#195B97"/>
<rect x="825.984" y="390.842" width="212.051" height="212.051" transform="rotate(-15 825.984 390.842)" fill="#195B97"/>
<path d="M812.753 555.993L851.885 545.507L845.646 522.222L864.404 517.196C888.821 510.653 899.827 488.986 893.717 466.186C887.781 444.032 870.067 429.021 843.386 436.17L784.849 451.855L812.753 555.993ZM837.457 491.66L832.171 471.932L842.358 469.202C848.341 467.599 852.205 470.376 853.938 476.845C855.541 482.828 853.304 487.413 846.997 489.103L837.457 491.66ZM964.436 517.082C999.688 507.637 1016.37 487.742 1005.84 448.448C995.311 409.154 970.918 400.265 935.666 409.711C900.415 419.156 883.735 439.051 894.263 478.345C904.792 517.639 929.185 526.528 964.436 517.082ZM955.554 483.933C944.073 487.009 938.234 482.681 934.204 467.643C930.175 452.604 933.068 445.936 944.549 442.86C956.03 439.784 961.869 444.112 965.898 459.15C969.928 474.189 967.035 480.857 955.554 483.933ZM1057.06 492.263C1087.79 484.031 1100 466.892 1094.67 447.002C1090 429.538 1082.52 419.755 1054.9 419.53C1043.25 419.36 1038.34 419.808 1037.56 416.898C1036.65 413.502 1043.43 410.992 1048.93 409.519C1055.72 407.699 1065.17 406.728 1078.27 408.416L1070.38 378.986C1061.12 378.695 1045.11 380.386 1034.76 383.159C1004.36 391.304 991.814 405.931 997.706 427.923C1002.47 445.711 1011.14 451.534 1033.23 453.762C1045.51 454.976 1053.41 454.072 1054.45 457.953C1055.28 461.025 1051.83 463.682 1045.36 465.415C1035.34 468.102 1020.48 468.27 1008.95 465.987L1016.79 495.256C1027.26 497.475 1042.35 496.206 1057.06 492.263Z" fill="white"/>
</g>
<path d="M903.57 669.543L902.726 669.657L902.631 670.504L898.446 708.171L898.425 708.366L898.472 708.556L902.657 725.297L902.864 726.123H903.716H919.461L934.55 735.039L934.985 735.297L935.463 735.13L950.546 729.884L958.348 748.089L954.901 757.857L944.967 747.303L944.711 747.031L944.341 746.973L899.699 739.998L899.133 739.909L898.739 740.325L886.183 753.578L885.884 753.894V754.329V787.81V788.018L885.96 788.211L915.562 863.248L886.554 875.391L886.975 877.488H935.105H936.525L936.159 876.116L925.035 834.402V804.551V804.383L924.984 804.223L921.428 792.96L950.824 802.105L950.92 802.135L951.021 802.147L973.961 804.846L982.168 843.144L982.181 843.203L982.2 843.261L993.36 876.742L993.538 877.275L994.075 877.44L1039.41 891.391L1040.23 891.641L1040.67 890.914L1052.53 871.383L1053.34 870.047L1051.8 869.747L1017.14 862.949L1019.2 794.819L1019.21 794.694L1019.18 794.572L1013.6 766.67L1013.57 766.514L1013.49 766.373L1001.87 744.495L1009.36 725.431L1009.44 725.239V725.032V709.382H1022.3H1023.01L1023.29 708.734L1028.75 696.453L1040.36 688.256L1040.62 688.075L1040.74 687.785L1047.72 671.044L1047.88 670.653L1047.74 670.255L1028.9 617.94L1028.64 617.218H1027.88H1016.02H1015.5L1015.17 617.623L1003.31 632.271L1002.55 633.214L1003.57 633.873L1015.43 641.546L1016.25 642.076L1016.86 641.321L1021.21 636.013V654.581V654.812L1021.3 655.024L1026.2 666.046H1016.02H1015.37L1015.06 666.611L1007.7 679.996H1000.67H1000.37L1000.11 680.152L990.23 686.081L981.39 680.398L978.745 670.481V657.371V656.841L978.328 656.513L968.563 648.84L968.04 648.429L967.434 648.707L950.694 656.379L949.927 656.731L950.074 657.561L954.259 681.277L954.299 681.502L954.426 681.692L958.611 687.97L958.935 688.456H959.519H966.798V694.989L955.129 699.527H944.173H944.005L943.846 699.578L921.084 706.731L922.932 693.797L922.99 693.385L922.759 693.038L915.14 681.61L929.922 675.825L930.615 675.554V674.81V667.137V665.888L929.378 666.056L903.57 669.543Z" fill="#482E11" stroke="#482E11" stroke-width="2.18173"/>
<ellipse cx="979.05" cy="899.417" rx="163.223" ry="27.9015" fill="#482E11"/>
<defs>
<clipPath id="clip0_340:1115">
<rect x="694.421" y="314.885" width="418.522" height="418.522" rx="51.6177" transform="rotate(-15 694.421 314.885)" fill="white"/>
</clipPath>
</defs>
</svg>
