<svg width="300" height="300" viewBox="0 0 300 300" fill="none" xmlns="http://www.w3.org/2000/svg">
<path d="M150 294C244.783 294 300 255.264 300 149.5C300 43.7365 244.783 5 150 5C55.2174 5 0 43.7365 0 149.5C0 255.264 55.2174 294 150 294ZM150 204.776C119.13 204.776 107.391 189.977 107.391 149.5C107.391 109.023 119.13 94.2244 150 94.2244C180.87 94.2244 192.609 109.023 192.609 149.5C192.609 189.977 180.87 204.776 150 204.776Z" fill="#195B97"/>
<rect x="77" y="77" width="152" height="152" fill="#195B97"/>
<path d="M104 104.217C104 92.6897 116.331 85.363 126.453 90.8665L209.93 136.285C220.505 142.046 220.505 157.226 209.93 162.979L126.453 208.398C116.331 213.908 104 206.575 104 195.055V104.217Z" fill="white"/>
</svg>
