<svg fill="none" height="300" viewBox="0 0 300 300" width="300" xmlns="http://www.w3.org/2000/svg"><path d="m150 294c94.783 0 150-38.736 150-144.5 0-105.7635-55.217-144.5-150-144.5-94.7826 0-150 38.7365-150 144.5 0 105.764 55.2174 144.5 150 144.5zm0-89.224c-30.87 0-42.609-14.799-42.609-55.276s11.739-55.2756 42.609-55.2756 42.609 14.7986 42.609 55.2756-11.739 55.276-42.609 55.276z" fill="#195b97"/><path d="m77 77h152v152h-152z" fill="#195b97"/><path d="m37.2 189h29.04v-17.28h13.92c18.12 0 29.76-12.96 29.76-29.88 0-16.44-9.48-30.12-29.28-30.12h-43.44zm29.04-39.96v-14.64h7.56c4.44 0 6.6 2.64 6.6 7.44 0 4.44-2.4 7.2-7.08 7.2zm83.202 41.16c26.16 0 41.4-10.68 41.4-39.84s-15.24-39.84-41.4-39.84-41.4 10.68-41.4 39.84 15.24 39.84 41.4 39.84zm0-24.6c-8.52 0-11.76-4.08-11.76-15.24s3.24-15.24 11.76-15.24 11.76 4.08 11.76 15.24-3.24 15.24-11.76 15.24zm68.737 24.6c22.8 0 34.44-9.6 34.44-24.36 0-12.96-3.36-21.12-22.44-26.4-8.04-2.28-11.52-2.88-11.52-5.04 0-2.52 5.16-3 9.24-3 5.04 0 11.76 1.08 20.52 4.68v-21.84c-6.36-1.92-17.76-3.72-25.44-3.72-22.56 0-33.96 7.8-33.96 24.12 0 13.2 4.92 18.84 19.8 24.48 8.28 3.12 13.92 3.96 13.92 6.84 0 2.28-2.88 3.48-7.68 3.48-7.44 0-17.76-2.64-25.32-6.36v21.72c6.84 3.48 17.52 5.4 28.44 5.4z" fill="#fff"/></svg>